<svg width="20" height="18" viewBox="0 0 20 18" fill="none" xmlns="http://www.w3.org/2000/svg">
<path d="M10.0002 14C12.3014 14 14.1669 12.1345 14.1669 9.83334C14.1669 7.53215 12.3014 5.66667 10.0002 5.66667C7.69899 5.66667 5.8335 7.53215 5.8335 9.83334C5.8335 12.1345 7.69899 14 10.0002 14Z" fill="#001034"/>
<path d="M18.3333 3.16669H15.6905C15.3564 3.16669 15.0427 3.0365 14.8063 2.80048L13.2829 1.27705C12.8894 0.88357 12.3661 0.666695 11.8095 0.666695H8.19051C7.63387 0.666695 7.11059 0.88357 6.71711 1.27705L5.19367 2.80048C4.95727 3.0365 4.64355 3.16669 4.30949 3.16669H1.66668C0.747461 3.16669 0 3.91416 0 4.83333V15.6667C0 16.5858 0.747461 17.3333 1.66668 17.3333H18.3334C19.2525 17.3333 20 16.5859 20 15.6667V4.83333C20 3.91416 19.2525 3.16669 18.3333 3.16669ZM10 14.8333C7.24285 14.8333 5 12.5905 5 9.83334C5 7.07619 7.24285 4.83333 10 4.83333C12.7571 4.83333 15 7.07619 15 9.83334C15 12.5905 12.7571 14.8333 10 14.8333ZM16.6667 7.33333C16.2073 7.33333 15.8334 6.95939 15.8334 6.50002C15.8334 6.04064 16.2073 5.66669 16.6667 5.66669C17.1261 5.66669 17.5 6.04064 17.5 6.50002C17.5 6.95939 17.1261 7.33333 16.6667 7.33333Z" fill="#001034"/>
</svg>
