<svg width="20" height="20" viewBox="0 0 20 20" fill="none" xmlns="http://www.w3.org/2000/svg">
<path d="M17.9168 5C17.9168 5.20411 17.8419 5.40111 17.7062 5.55364C17.5706 5.70617 17.3837 5.80362 17.181 5.8275L17.0835 5.83333H16.3793L15.3535 16.2667C15.2976 16.8328 15.0332 17.3579 14.6117 17.7399C14.1901 18.1219 13.6415 18.3334 13.0727 18.3333H6.92766C6.35879 18.3334 5.81022 18.1219 5.38866 17.7399C4.9671 17.3579 4.70268 16.8328 4.64683 16.2667L3.621 5.83333H2.91683C2.69582 5.83333 2.48385 5.74554 2.32757 5.58926C2.17129 5.43298 2.0835 5.22101 2.0835 5C2.0835 4.77899 2.17129 4.56702 2.32757 4.41074C2.48385 4.25446 2.69582 4.16667 2.91683 4.16667H7.0835C7.0835 3.39312 7.39079 2.65125 7.93777 2.10427C8.48475 1.55729 9.22661 1.25 10.0002 1.25C10.7737 1.25 11.5156 1.55729 12.0626 2.10427C12.6095 2.65125 12.9168 3.39312 12.9168 4.16667H17.0835C17.3045 4.16667 17.5165 4.25446 17.6728 4.41074C17.829 4.56702 17.9168 4.77899 17.9168 5ZM11.8752 7.70833C11.7241 7.70834 11.5782 7.76304 11.4644 7.86231C11.3506 7.96158 11.2765 8.09871 11.256 8.24833L11.2502 8.33333V14.1667L11.256 14.2517C11.2766 14.4013 11.3506 14.5383 11.4644 14.6376C11.5783 14.7368 11.7242 14.7915 11.8752 14.7915C12.0262 14.7915 12.1721 14.7368 12.2859 14.6376C12.3997 14.5383 12.4737 14.4013 12.4943 14.2517L12.5002 14.1667V8.33333L12.4943 8.24833C12.4738 8.09871 12.3998 7.96158 12.2859 7.86231C12.1721 7.76304 12.0262 7.70834 11.8752 7.70833ZM8.12516 7.70833C7.97413 7.70834 7.82821 7.76304 7.71439 7.86231C7.60056 7.96158 7.52654 8.09871 7.506 8.24833L7.50016 8.33333V14.1667L7.506 14.2517C7.52658 14.4013 7.60062 14.5383 7.71444 14.6376C7.82826 14.7368 7.97416 14.7915 8.12516 14.7915C8.27617 14.7915 8.42206 14.7368 8.53588 14.6376C8.6497 14.5383 8.72375 14.4013 8.74433 14.2517L8.75016 14.1667V8.33333L8.74433 8.24833C8.72379 8.09871 8.64976 7.96158 8.53594 7.86231C8.42211 7.76304 8.27619 7.70834 8.12516 7.70833ZM10.0002 2.91667C9.66864 2.91667 9.3507 3.04836 9.11628 3.28278C8.88186 3.5172 8.75016 3.83515 8.75016 4.16667H11.2502C11.2502 3.83515 11.1185 3.5172 10.884 3.28278C10.6496 3.04836 10.3317 2.91667 10.0002 2.91667Z" fill="white"/>
</svg>
