<svg xmlns="http://www.w3.org/2000/svg" width="23.185" height="23.423" viewBox="0 0 23.185 23.423">
    <g opacity="0.35">
        <g>
            <path fill="#656080" d="M10.028 10.871V1.8A1.807 1.807 0 0 1 11.83 0a1.847 1.847 0 0 1 1.8 1.8v9.069a1.8 1.8 0 0 1-3.6 0zm9.009-8.228A1.37 1.37 0 0 0 17.355 4.8 8.894 8.894 0 1 1 3 11.832a8.762 8.762 0 0 1 3.425-6.967 1.354 1.354 0 0 0 .24-1.922A1.409 1.409 0 0 0 4.743 2.7 11.524 11.524 0 0 0 .3 11.832a11.471 11.471 0 0 0 11.53 11.591 11.634 11.634 0 0 0 7.207-20.78z" transform="translate(.001) translate(-.001) translate(-.297)"/>
        </g>
    </g>
</svg>
